<svg xmlns="http://www.w3.org/2000/svg" viewBox="0 0 400 300" width="400" height="300">
<defs>
<linearGradient id="bg3" x1="0" y1="0" x2="1" y2="1"><stop offset="0%" stop-color="#4facfe" stop-opacity="1"/><stop offset="50%" stop-color="#3b8fd6" stop-opacity="1"/><stop offset="100%" stop-color="#2a6fa8" stop-opacity="1"/></linearGradient>
<radialGradient id="glow3" cx="0.5" cy="0.2" r="0.5"><stop offset="0%" stop-color="rgba(255,255,255,0.1)" stop-opacity="1"/><stop offset="100%" stop-color="rgba(255,255,255,0)" stop-opacity="1"/></radialGradient>
</defs>
<rect width="400" height="300" fill="url(#bg3)"/>
<rect width="400" height="300" fill="url(#glow3)"/>
<circle cx="380" cy="30" r="90" fill="rgba(255,255,255,0.04)"/>
<circle cx="20" cy="280" r="70" fill="rgba(255,255,255,0.04)"/>
<!-- stage floor -->
<rect x="50" y="230" width="300" height="70" rx="4" fill="rgba(0,0,0,0.2)"/>
<rect x="50" y="228" width="300" height="6" rx="3" fill="rgba(255,255,255,0.15)"/>
<!-- spotlight beam -->
<path d="M200 0 L140 230 L260 230 Z" fill="rgba(255,255,255,0.06)"/>
<ellipse cx="200" cy="230" rx="60" ry="8" fill="rgba(255,255,255,0.08)"/>
<!-- spotlight circle on stage -->
<ellipse cx="200" cy="235" rx="35" ry="6" fill="rgba(255,255,255,0.12)"/>
<!-- left curtain -->
<path d="M50 0 Q40 80 60 150 Q70 190 55 230 L50 230 L50 0 Z" fill="rgba(180,40,40,0.5)"/>
<path d="M80 0 Q72 60 85 120 Q92 160 82 230 L78 230 L78 0 Z" fill="rgba(200,50,50,0.35)"/>
<!-- right curtain -->
<path d="M350 0 Q360 80 340 150 Q330 190 345 230 L350 230 L350 0 Z" fill="rgba(180,40,40,0.5)"/>
<path d="M320 0 Q328 60 315 120 Q308 160 318 230 L322 230 L322 0 Z" fill="rgba(200,50,50,0.35)"/>
<!-- curtain top valance -->
<path d="M50 0 L350 0" stroke="rgba(180,40,40,0.4)" stroke-width="12"/>
<path d="M50 6 Q120 20 200 8 Q280 20 350 6" stroke="rgba(200,50,50,0.3)" stroke-width="3" fill="none"/>
<path d="M50 12 Q120 26 200 14 Q280 26 350 12" stroke="rgba(200,50,50,0.2)" stroke-width="2" fill="none"/>
<!-- theater masks (comedy/tragedy simplified) -->
<circle cx="138" cy="120" r="22" fill="rgba(255,255,255,0.12)"/>
<path d="M126 114 Q138 108 150 114" stroke="rgba(255,255,255,0.2)" stroke-width="2" fill="none" stroke-linecap="round"/>
<path d="M128 125 Q138 122 148 125" stroke="rgba(255,255,255,0.2)" stroke-width="2" fill="none" stroke-linecap="round"/>
<circle cx="262" cy="120" r="22" fill="rgba(255,255,255,0.12)"/>
<path d="M250 114 Q262 108 274 114" stroke="rgba(255,255,255,0.2)" stroke-width="2" fill="none" stroke-linecap="round"/>
<path d="M252 125 Q262 120 272 125" stroke="rgba(255,255,255,0.15)" stroke-width="2" fill="none" stroke-linecap="round"/>
<!-- stars -->
<g fill="rgba(255,255,255,0.3)">
  <polygon points="200,30 203,40 213,40 205,46 208,56 200,50 192,56 195,46 187,40 197,40" transform="scale(0.7) translate(85,0)"/>
  <polygon points="200,30 203,40 213,40 205,46 208,56 200,50 192,56 195,46 187,40 197,40" transform="scale(0.5) translate(250,60)"/>
</g>
<circle cx="330" cy="45" r="2" fill="rgba(255,255,255,0.3)"/>
<circle cx="70" cy="50" r="2.5" fill="rgba(255,255,255,0.35)"/>
</svg>